<?xml version="1.0" standalone="no"?>
<!DOCTYPE svg PUBLIC "-//W3C//DTD SVG 1.1//EN" "http://www.w3.org/Graphics/SVG/1.1/DTD/svg11.dtd" >
<svg>
<metadata>
Created by FontForge 20120731 at Thu Jan 25 08:23:28 2018
 By www-data
Copyright (c) 2015 by Tzu-yuan Yin. All rights reserved.
</metadata>
<defs>
<font id="Jonah-Regular" horiz-adv-x="507" >
  <font-face 
    font-family="Jonah"
    font-weight="400"
    font-stretch="normal"
    units-per-em="1000"
    panose-1="0 0 5 0 0 0 0 0 0 0"
    ascent="800"
    descent="-200"
    x-height="699"
    cap-height="709"
    bbox="-102 -167.222 711.2 755"
    underline-thickness="50"
    underline-position="-50"
    unicode-range="U+0020-007A"
  />
    <missing-glyph />
    <glyph glyph-name="space" unicode=" " horiz-adv-x="200" 
 />
    <glyph glyph-name="A" unicode="A" 
d="M490 -8q0 -6 -4.5 -10t-10.5 -4q-10 0 -13 10l-64 220h-280l-76 -218q-3 -10 -13 -10q-7 0 -11.5 5t-1.5 12l234 708q6 16 17 16q10 0 15 -16l207 -709zM128 235h261l-124 439z" />
    <glyph glyph-name="B" unicode="B" horiz-adv-x="397" 
d="M275.5 359.5q42.5 -30.5 64.5 -73.5t22 -90q0 -54 -28.5 -102t-84.5 -77.5t-135 -29.5q-25 0 -54 3v716q34 4 49 4q61 0 107.5 -23t71 -60.5t24.5 -78.5q0 -49 -35.5 -89.5t-104.5 -58.5q61 -10 103.5 -40.5zM195.5 435q43.5 21 65 51.5t21.5 64.5q0 36 -23 66.5t-67 48
t-104 14.5v-271q64 5 107.5 26zM121 20q67 0 114.5 24.5t71.5 64.5t24 86q0 50 -28 94t-83 69.5t-132 21.5v-359q11 -1 33 -1z" />
    <glyph glyph-name="C" unicode="C" horiz-adv-x="584" 
d="M561 124q0 5 -4.5 9t-9.5 4q-6 0 -11 -6q-49 -60 -107.5 -89.5t-117.5 -29.5q-71 0 -132.5 40t-98 113.5t-36.5 168.5q0 101 36 179.5t95.5 121.5t127.5 43q58 0 113.5 -32.5t101.5 -98.5q9 -12 18 -12q6 0 10 5.5t4 14.5v139q0 7 -3.5 11t-9.5 4q-5 0 -9 -4t-4 -11v-116
q-50 66 -107 98t-116 32q-75 0 -140.5 -48.5t-105 -135t-39.5 -196.5q0 -99 41 -178.5t109 -124.5t146 -45q65 0 127.5 32.5t116.5 99.5q5 7 5 12z" />
    <glyph glyph-name="D" unicode="D" horiz-adv-x="504" 
d="M338 662.5q71 -51.5 111 -137t40 -183.5q0 -95 -40.5 -175t-112 -127.5t-158.5 -47.5q-47 0 -83.5 12t-69.5 36q-7 6 -7 12q0 5 4 9t10 4q5 0 12 -5q36 -26 77 -33v652q-28 -5 -40 -11.5t-17.5 -12t-7.5 -6.5q-4 -4 -10 -4t-10.5 4t-4.5 10q0 5 4 9q14 15 47 30.5
t96 15.5q89 0 160 -51.5zM182 19q77 0 141 44t101 118t37 161q0 91 -37 170.5t-102 127t-144 47.5q-9 0 -29 -2v-664q22 -2 33 -2z" />
    <glyph glyph-name="E" unicode="E" horiz-adv-x="383" 
d="M378 21q4 -4 4 -10q0 -5 -4 -9t-11 -4h-292q-6 0 -10.5 4.5t-4.5 10.5v676q0 6 4.5 10.5t10.5 4.5h273q6 0 10 -4t4 -10t-4 -10t-10 -4h-254q-2 0 -4 -2t-2 -4v-294h237q6 0 10 -4t4 -10t-4 -10t-10 -4h-237v-317q0 -2 2 -4t4 -2h273q7 0 11 -4z" />
    <glyph glyph-name="F" unicode="F" horiz-adv-x="319" 
d="M302 699q4 -4 4 -10t-4 -10.5t-11 -4.5h-198q-2 0 -4 -2t-2 -4v-295h177q7 0 11 -4.5t4 -10.5q0 -13 -15 -13h-177v-351q0 -6 -4 -10t-9 -4q-6 0 -10 4t-4 10v694q0 6 4.5 10.5t10.5 4.5h216q7 0 11 -4z" />
    <glyph glyph-name="G" unicode="G" horiz-adv-x="580" 
d="M455 11q50 23 71 46q9 11 11.5 20t2.5 31v240q0 20 -19 20h-244q-6 0 -10 -4t-4 -10t4 -10t10 -4h230q2 0 4 -2t2 -4v-231q0 -17 -12 -29q-37 -33 -79 -45.5t-105 -12.5q-75 0 -137.5 43.5t-99 118.5t-36.5 165q0 87 36 167t98.5 129t138.5 49q65 0 103 -30t68 -74
q5 -8 14 -8q6 0 10 3.5t4 9.5q0 5 -3 9q-24 49 -80.5 83.5t-115.5 34.5q-84 0 -153.5 -53.5t-109 -140t-39.5 -179.5q0 -95 39 -176.5t108.5 -130t154.5 -48.5q88 0 138 23z" />
    <glyph glyph-name="H" unicode="H" horiz-adv-x="497" 
d="M413 713q4 4 10 4t10 -4t4 -10v-701q0 -6 -4 -9.5t-10 -3.5t-10 3.5t-4 9.5v352h-321v-352q0 -6 -4 -9.5t-9 -3.5q-6 0 -10.5 3.5t-4.5 9.5v701q0 6 4.5 10t10.5 4q5 0 9 -4t4 -10v-320h321v320q0 6 4 10z" />
    <glyph glyph-name="I" unicode="I" horiz-adv-x="148" 
d="M88 694q0 7 -4 11t-10 4t-10 -4t-4 -11v-691q0 -6 4 -9t10 -3t10 3t4 9v691z" />
    <glyph glyph-name="J" unicode="J" horiz-adv-x="177" 
d="M63 -96.5q54 62.5 54 168.5v628q0 7 -4.5 11.5t-10.5 4.5t-9.5 -4t-3.5 -12v-628q0 -76 -29 -123t-69.5 -67.5t-79.5 -23.5q-6 0 -9.5 -4t-3.5 -9q0 -6 4.5 -9.5t12.5 -2.5q94 8 148 70.5z" />
    <glyph glyph-name="K" unicode="K" horiz-adv-x="467" 
d="M456 1q0 -5 -4.5 -9.5t-9.5 -4.5q-6 0 -12 7l-265 352l-77 -94v-249q0 -6 -4 -10t-10 -4t-10 4t-4 10v694q0 7 4 11t10 4t10 -4t4 -11v-404l314 401q5 5 10 5q6 0 11 -4t5 -9t-4 -9l-241 -308l270 -359q3 -4 3 -9z" />
    <glyph glyph-name="L" unicode="L" horiz-adv-x="327" 
d="M301.5 -0.5q4.5 4.5 4.5 10.5t-4 10t-12 4h-196q-2 0 -4 2t-2 4v663q0 7 -4 11t-10 4t-10 -4t-4 -11v-676q0 -22 21 -22h209q7 0 11.5 4.5z" />
    <glyph glyph-name="M" unicode="M" horiz-adv-x="731" 
d="M582 704q-2 9 -7 14.5t-10 5.5t-10 -4.5t-7 -12.5q-30 -101 -134 -492l-48 -182q-17 70 -53 199t-50 180q-64 222 -81 295q-4 16 -15 16q-5 0 -10.5 -5t-6.5 -13l-130 -704v-2q0 -6 4.5 -10t10.5 -4q11 0 12 10l15 78q74 396 106 603q39 -184 181 -662q5 -13 18 -13
t17 14q22 68 85 299.5t94 365.5q14 -93 35 -209t27 -149q42 -222 58 -327q1 -5 5 -8t9 -3q7 0 11 4.5t3 12.5z" />
    <glyph glyph-name="N" unicode="N" horiz-adv-x="546" 
d="M85 652q220 -395 283 -505.5t86 -146.5q7 -10 16 -10q6 0 11 6t5 16v687q0 7 -4 11t-10 4t-10 -4t-4 -11q0 -352 3 -664l-250 445q-110 195 -115 203q-8 14 -20 14q-7 0 -11.5 -5.5t-4.5 -14.5v-681q0 -6 4 -10t10 -4t10 4t4 10q0 391 -3 656z" />
    <glyph glyph-name="O" unicode="O" horiz-adv-x="633" 
d="M161.5 35q-68.5 48 -107.5 129.5t-39 176.5t39 182t107.5 140.5t153.5 53.5q83 0 152.5 -53.5t110 -140.5t40.5 -182t-39.5 -176t-109 -129.5t-154.5 -48.5t-153.5 48zM453.5 60.5q62.5 42.5 98.5 116.5t36 164q0 88 -35.5 168t-98 129t-139.5 49q-76 0 -138.5 -49
t-97.5 -129t-35 -168q0 -90 36 -164t98 -116.5t137 -42.5q76 0 138.5 42.5z" />
    <glyph glyph-name="P" unicode="P" horiz-adv-x="418" 
d="M322 297q-84 -64 -234 -67v-242q0 -7 -4 -11t-10 -4t-10 4t-4 11v720q17 2 51 2q82 0 149 -25t106.5 -74.5t39.5 -120.5q0 -129 -84 -193zM302 319q77 58 77 171q0 62 -37 106t-95 66t-118 22q-21 0 -41 -3v-422q137 2 214 60z" />
    <glyph glyph-name="Q" unicode="Q" horiz-adv-x="634" 
d="M162.5 30.5q-69.5 49.5 -108.5 131t-39 174.5q0 94 39.5 183.5t109 146t154.5 56.5q84 0 153 -56.5t108.5 -146t39.5 -183.5q0 -66 -18.5 -125t-54.5 -107l59 -99q3 -6 3 -10q0 -6 -4.5 -9.5t-10.5 -3.5q-8 0 -12 7l-53 91q-43 -47 -97.5 -73t-112.5 -26
q-86 0 -155.5 49.5zM423.5 37q49.5 25 88.5 71l-79 138q-2 4 -2 7q0 6 4.5 10t10.5 4q8 0 12 -7l73 -129q28 41 43 94t15 111q0 86 -35 168t-97 134t-139 52q-78 0 -140.5 -51.5t-97.5 -133.5t-35 -169q0 -90 36 -164t99 -117t138 -43q56 0 105.5 25z" />
    <glyph glyph-name="R" unicode="R" horiz-adv-x="411" 
d="M666.5 -110q3.5 -5 3.5 -11q0 -13 -13 -13q-158 0 -284.5 98.5t-210.5 283.5q-18 -5 -75 -16v-240q0 -6 -4 -9.5t-10 -3.5q-5 0 -9 3.5t-4 9.5v719q25 4 57 4q82 0 146 -32t99 -84t35 -111q0 -70 -52 -132.5t-156 -99.5q76 -170 197 -265.5t271 -95.5q6 0 9.5 -5zM87 262
q91 13 154.5 48.5t95.5 83t32 98.5q0 52 -32.5 97t-96.5 72.5t-153 27.5v-427z" />
    <glyph glyph-name="S" unicode="S" horiz-adv-x="367" 
d="M327.5 74q17.5 41 17.5 85q0 65 -35 110q-16 21 -49.5 55.5t-66.5 67.5q-69 67 -86 88q-15 18 -22.5 41t-7.5 47q0 28 10.5 53.5t30.5 40.5q31 24 69 24q34 0 63.5 -21.5t49.5 -63.5q3 -7 12 -7q7 0 12.5 5.5t1.5 12.5q-22 48 -59.5 75t-79.5 27q-45 0 -85 -31
q-26 -19 -40 -50t-14 -67q0 -28 9 -54.5t27 -47.5q34 -39 96 -99q31 -30 60.5 -60.5t46.5 -52.5q28 -37 28 -93q0 -39 -14 -74t-40 -54q-36 -27 -76 -27q-49 0 -91.5 35.5t-59.5 82.5q-4 10 -14 10q-7 0 -10.5 -4.5t-1.5 -12.5q16 -57 67 -96.5t111 -39.5q49 0 92 30
q31 24 48.5 65z" />
    <glyph glyph-name="T" unicode="T" horiz-adv-x="357" 
d="M339 683q0 -6 -4 -10.5t-10 -4.5h-136v-673q0 -6 -4.5 -10t-10.5 -4q-13 0 -13 14v673h-130q-6 0 -10 4.5t-4 10.5q0 13 14 13h294q14 0 14 -13z" />
    <glyph glyph-name="U" unicode="U" horiz-adv-x="530" 
d="M419.5 39.5q50.5 65.5 50.5 189.5v465q0 6 -4 10t-10 4t-10 -4t-4 -10v-465q0 -109 -44.5 -167t-132.5 -58q-84 0 -130 60.5t-46 164.5v468q0 6 -4.5 10.5t-10.5 4.5t-10 -4t-4 -11v-468q0 -119 53.5 -187t151.5 -68q104 0 154.5 65.5z" />
    <glyph glyph-name="V" unicode="V" horiz-adv-x="541" 
d="M530 696q1 2 1 6q0 6 -4 9t-10 3q-10 0 -13 -8l-230 -667l-236 666q-3 9 -13 9q-7 0 -12 -5.5t-2 -13.5l251 -700q4 -9 15 -9q9 0 12 9z" />
    <glyph glyph-name="W" unicode="W" horiz-adv-x="689" 
d="M580 305q-73 -288 -79 -302q-4 -12 -13 -12q-6 0 -11 5q-7 7 -60 135q-57 138 -76 177l-53 -131q-11 -26 -40.5 -99.5t-34.5 -79.5q-4 -7 -11 -7q-10 0 -16 13q-5 14 -96 363q-67 260 -85 328l-1 4q0 6 4 9.5t10 3.5q10 0 13 -10l172 -661l119 294l-126 335q-1 2 -1 5
q0 6 4.5 10.5t9.5 4.5q9 0 12 -10q3 -9 7.5 -19.5t8.5 -23.5q66 -172 105 -285q44 128 120 328q4 11 13 11q7 0 12 -7t2 -14l-45 -119l-82 -220q42 -94 122 -290l170 661q3 12 14 12q7 0 11.5 -5.5t2.5 -13.5q-24 -89 -102 -390z" />
    <glyph glyph-name="X" unicode="X" horiz-adv-x="410" 
d="M398 -4q0 -6 -4.5 -9.5t-10.5 -3.5q-9 0 -12 7l-167 356l-165 -356q-4 -10 -13 -10q-7 0 -11.5 7t-0.5 15l175 376l-145 314q-1 2 -1 5q0 6 5 10.5t10 4.5q8 0 11 -8l135 -292l135 292q4 8 12 8t13 -6t1 -14l-145 -314l176 -376q2 -4 2 -6z" />
    <glyph glyph-name="Y" unicode="Y" horiz-adv-x="436" 
d="M409 702q7 0 12.5 -6t1.5 -14l-192 -376v-308q0 -8 -4 -12t-10 -4t-10 4t-4 12l1 309l-190 375q-2 4 -2 7q0 5 4.5 9t10.5 4q7 0 11 -7l179 -354l181 354q3 7 11 7z" />
    <glyph glyph-name="Z" unicode="Z" horiz-adv-x="399" 
d="M20 6q-5 5 -5 12q0 3 2 9l308 639q1 2 0 3.5t-3 1.5h-273q-6 0 -10 4t-4 10t4 10t10 4h295q8 0 13 -5t5 -12q0 -3 -2 -9l-308 -637q-1 -2 0 -3.5t3 -1.5h314q7 0 11 -4.5t4 -10.5t-4 -10.5t-11 -4.5h-336q-8 0 -13 5z" />
    <glyph glyph-name="a" unicode="a" 
d="M490 -8q0 -6 -4.5 -10t-10.5 -4q-10 0 -13 10l-64 220h-280l-76 -218q-3 -10 -13 -10q-7 0 -11.5 5t-1.5 12l234 708q6 16 17 16q10 0 15 -16l207 -709zM128 235h261l-124 439z" />
    <glyph glyph-name="b" unicode="b" horiz-adv-x="397" 
d="M275.5 359.5q42.5 -30.5 64.5 -73.5t22 -90q0 -54 -28.5 -102t-84.5 -77.5t-135 -29.5q-25 0 -54 3v716q34 4 49 4q61 0 107.5 -23t71 -60.5t24.5 -78.5q0 -49 -35.5 -89.5t-104.5 -58.5q61 -10 103.5 -40.5zM195.5 435q43.5 21 65 51.5t21.5 64.5q0 36 -23 66.5t-67 48
t-104 14.5v-271q64 5 107.5 26zM121 20q67 0 114.5 24.5t71.5 64.5t24 86q0 50 -28 94t-83 69.5t-132 21.5v-359q11 -1 33 -1z" />
    <glyph glyph-name="c" unicode="c" horiz-adv-x="584" 
d="M561 124q0 5 -4.5 9t-9.5 4q-6 0 -11 -6q-49 -60 -107.5 -89.5t-117.5 -29.5q-71 0 -132.5 40t-98 113.5t-36.5 168.5q0 101 36 179.5t95.5 121.5t127.5 43q58 0 113.5 -32.5t101.5 -98.5q9 -12 18 -12q6 0 10 5.5t4 14.5v139q0 7 -3.5 11t-9.5 4q-5 0 -9 -4t-4 -11v-116
q-50 66 -107 98t-116 32q-75 0 -140.5 -48.5t-105 -135t-39.5 -196.5q0 -99 41 -178.5t109 -124.5t146 -45q65 0 127.5 32.5t116.5 99.5q5 7 5 12z" />
    <glyph glyph-name="d" unicode="d" horiz-adv-x="504" 
d="M338 662.5q71 -51.5 111 -137t40 -183.5q0 -95 -40.5 -175t-112 -127.5t-158.5 -47.5q-47 0 -83.5 12t-69.5 36q-7 6 -7 12q0 5 4 9t10 4q5 0 12 -5q36 -26 77 -33v652q-28 -5 -40 -11.5t-17.5 -12t-7.5 -6.5q-4 -4 -10 -4t-10.5 4t-4.5 10q0 5 4 9q14 15 47 30.5
t96 15.5q89 0 160 -51.5zM182 19q77 0 141 44t101 118t37 161q0 91 -37 170.5t-102 127t-144 47.5q-9 0 -29 -2v-664q22 -2 33 -2z" />
    <glyph glyph-name="e" unicode="e" horiz-adv-x="383" 
d="M378 21q4 -4 4 -10q0 -5 -4 -9t-11 -4h-292q-6 0 -10.5 4.5t-4.5 10.5v676q0 6 4.5 10.5t10.5 4.5h273q6 0 10 -4t4 -10t-4 -10t-10 -4h-254q-2 0 -4 -2t-2 -4v-294h237q6 0 10 -4t4 -10t-4 -10t-10 -4h-237v-317q0 -2 2 -4t4 -2h273q7 0 11 -4z" />
    <glyph glyph-name="f" unicode="f" horiz-adv-x="319" 
d="M302 699q4 -4 4 -10t-4 -10.5t-11 -4.5h-198q-2 0 -4 -2t-2 -4v-295h177q7 0 11 -4.5t4 -10.5q0 -13 -15 -13h-177v-351q0 -6 -4 -10t-9 -4q-6 0 -10 4t-4 10v694q0 6 4.5 10.5t10.5 4.5h216q7 0 11 -4z" />
    <glyph glyph-name="g" unicode="g" horiz-adv-x="580" 
d="M455 11q50 23 71 46q9 11 11.5 20t2.5 31v240q0 20 -19 20h-244q-6 0 -10 -4t-4 -10t4 -10t10 -4h230q2 0 4 -2t2 -4v-231q0 -17 -12 -29q-37 -33 -79 -45.5t-105 -12.5q-75 0 -137.5 43.5t-99 118.5t-36.5 165q0 87 36 167t98.5 129t138.5 49q65 0 103 -30t68 -74
q5 -8 14 -8q6 0 10 3.5t4 9.5q0 5 -3 9q-24 49 -80.5 83.5t-115.5 34.5q-84 0 -153.5 -53.5t-109 -140t-39.5 -179.5q0 -95 39 -176.5t108.5 -130t154.5 -48.5q88 0 138 23z" />
    <glyph glyph-name="h" unicode="h" horiz-adv-x="497" 
d="M413 713q4 4 10 4t10 -4t4 -10v-701q0 -6 -4 -9.5t-10 -3.5t-10 3.5t-4 9.5v352h-321v-352q0 -6 -4 -9.5t-9 -3.5q-6 0 -10.5 3.5t-4.5 9.5v701q0 6 4.5 10t10.5 4q5 0 9 -4t4 -10v-320h321v320q0 6 4 10z" />
    <glyph glyph-name="i" unicode="i" horiz-adv-x="148" 
d="M88 694q0 7 -4 11t-10 4t-10 -4t-4 -11v-691q0 -6 4 -9t10 -3t10 3t4 9v691z" />
    <glyph glyph-name="j" unicode="j" horiz-adv-x="177" 
d="M63 -96.5q54 62.5 54 168.5v628q0 7 -4.5 11.5t-10.5 4.5t-9.5 -4t-3.5 -12v-628q0 -76 -29 -123t-69.5 -67.5t-79.5 -23.5q-6 0 -9.5 -4t-3.5 -9q0 -6 4.5 -9.5t12.5 -2.5q94 8 148 70.5z" />
    <glyph glyph-name="k" unicode="k" horiz-adv-x="467" 
d="M456 1q0 -5 -4.5 -9.5t-9.5 -4.5q-6 0 -12 7l-265 352l-77 -94v-249q0 -6 -4 -10t-10 -4t-10 4t-4 10v694q0 7 4 11t10 4t10 -4t4 -11v-404l314 401q5 5 10 5q6 0 11 -4t5 -9t-4 -9l-241 -308l270 -359q3 -4 3 -9z" />
    <glyph glyph-name="l" unicode="l" horiz-adv-x="327" 
d="M301.5 -0.5q4.5 4.5 4.5 10.5t-4 10t-12 4h-196q-2 0 -4 2t-2 4v663q0 7 -4 11t-10 4t-10 -4t-4 -11v-676q0 -22 21 -22h209q7 0 11.5 4.5z" />
    <glyph glyph-name="m" unicode="m" horiz-adv-x="731" 
d="M582 704q-2 9 -7 14.5t-10 5.5t-10 -4.5t-7 -12.5q-30 -101 -134 -492l-48 -182q-17 70 -53 199t-50 180q-64 222 -81 295q-4 16 -15 16q-5 0 -10.5 -5t-6.5 -13l-130 -704v-2q0 -6 4.5 -10t10.5 -4q11 0 12 10l15 78q74 396 106 603q39 -184 181 -662q5 -13 18 -13
t17 14q22 68 85 299.5t94 365.5q14 -93 35 -209t27 -149q42 -222 58 -327q1 -5 5 -8t9 -3q7 0 11 4.5t3 12.5z" />
    <glyph glyph-name="n" unicode="n" horiz-adv-x="546" 
d="M85 652q220 -395 283 -505.5t86 -146.5q7 -10 16 -10q6 0 11 6t5 16v687q0 7 -4 11t-10 4t-10 -4t-4 -11q0 -352 3 -664l-250 445q-110 195 -115 203q-8 14 -20 14q-7 0 -11.5 -5.5t-4.5 -14.5v-681q0 -6 4 -10t10 -4t10 4t4 10q0 391 -3 656z" />
    <glyph glyph-name="o" unicode="o" horiz-adv-x="633" 
d="M161.5 35q-68.5 48 -107.5 129.5t-39 176.5t39 182t107.5 140.5t153.5 53.5q83 0 152.5 -53.5t110 -140.5t40.5 -182t-39.5 -176t-109 -129.5t-154.5 -48.5t-153.5 48zM453.5 60.5q62.5 42.5 98.5 116.5t36 164q0 88 -35.5 168t-98 129t-139.5 49q-76 0 -138.5 -49
t-97.5 -129t-35 -168q0 -90 36 -164t98 -116.5t137 -42.5q76 0 138.5 42.5z" />
    <glyph glyph-name="p" unicode="p" horiz-adv-x="418" 
d="M322 297q-84 -64 -234 -67v-242q0 -7 -4 -11t-10 -4t-10 4t-4 11v720q17 2 51 2q82 0 149 -25t106.5 -74.5t39.5 -120.5q0 -129 -84 -193zM302 319q77 58 77 171q0 62 -37 106t-95 66t-118 22q-21 0 -41 -3v-422q137 2 214 60z" />
    <glyph glyph-name="q" unicode="q" horiz-adv-x="634" 
d="M162.5 30.5q-69.5 49.5 -108.5 131t-39 174.5q0 94 39.5 183.5t109 146t154.5 56.5q84 0 153 -56.5t108.5 -146t39.5 -183.5q0 -66 -18.5 -125t-54.5 -107l59 -99q3 -6 3 -10q0 -6 -4.5 -9.5t-10.5 -3.5q-8 0 -12 7l-53 91q-43 -47 -97.5 -73t-112.5 -26
q-86 0 -155.5 49.5zM423.5 37q49.5 25 88.5 71l-79 138q-2 4 -2 7q0 6 4.5 10t10.5 4q8 0 12 -7l73 -129q28 41 43 94t15 111q0 86 -35 168t-97 134t-139 52q-78 0 -140.5 -51.5t-97.5 -133.5t-35 -169q0 -90 36 -164t99 -117t138 -43q56 0 105.5 25z" />
    <glyph glyph-name="r" unicode="r" horiz-adv-x="411" 
d="M666.5 -110q3.5 -5 3.5 -11q0 -13 -13 -13q-158 0 -284.5 98.5t-210.5 283.5q-18 -5 -75 -16v-240q0 -6 -4 -9.5t-10 -3.5q-5 0 -9 3.5t-4 9.5v719q25 4 57 4q82 0 146 -32t99 -84t35 -111q0 -70 -52 -132.5t-156 -99.5q76 -170 197 -265.5t271 -95.5q6 0 9.5 -5zM87 262
q91 13 154.5 48.5t95.5 83t32 98.5q0 52 -32.5 97t-96.5 72.5t-153 27.5v-427z" />
    <glyph glyph-name="s" unicode="s" horiz-adv-x="367" 
d="M327.5 74q17.5 41 17.5 85q0 65 -35 110q-16 21 -49.5 55.5t-66.5 67.5q-69 67 -86 88q-15 18 -22.5 41t-7.5 47q0 28 10.5 53.5t30.5 40.5q31 24 69 24q34 0 63.5 -21.5t49.5 -63.5q3 -7 12 -7q7 0 12.5 5.5t1.5 12.5q-22 48 -59.5 75t-79.5 27q-45 0 -85 -31
q-26 -19 -40 -50t-14 -67q0 -28 9 -54.5t27 -47.5q34 -39 96 -99q31 -30 60.5 -60.5t46.5 -52.5q28 -37 28 -93q0 -39 -14 -74t-40 -54q-36 -27 -76 -27q-49 0 -91.5 35.5t-59.5 82.5q-4 10 -14 10q-7 0 -10.5 -4.5t-1.5 -12.5q16 -57 67 -96.5t111 -39.5q49 0 92 30
q31 24 48.5 65z" />
    <glyph glyph-name="t" unicode="t" horiz-adv-x="357" 
d="M339 683q0 -6 -4 -10.5t-10 -4.5h-136v-673q0 -6 -4.5 -10t-10.5 -4q-13 0 -13 14v673h-130q-6 0 -10 4.5t-4 10.5q0 13 14 13h294q14 0 14 -13z" />
    <glyph glyph-name="u" unicode="u" horiz-adv-x="530" 
d="M419.5 39.5q50.5 65.5 50.5 189.5v465q0 6 -4 10t-10 4t-10 -4t-4 -10v-465q0 -109 -44.5 -167t-132.5 -58q-84 0 -130 60.5t-46 164.5v468q0 6 -4.5 10.5t-10.5 4.5t-10 -4t-4 -11v-468q0 -119 53.5 -187t151.5 -68q104 0 154.5 65.5z" />
    <glyph glyph-name="v" unicode="v" horiz-adv-x="541" 
d="M530 696q1 2 1 6q0 6 -4 9t-10 3q-10 0 -13 -8l-230 -667l-236 666q-3 9 -13 9q-7 0 -12 -5.5t-2 -13.5l251 -700q4 -9 15 -9q9 0 12 9z" />
    <glyph glyph-name="w" unicode="w" horiz-adv-x="689" 
d="M580 305q-73 -288 -79 -302q-4 -12 -13 -12q-6 0 -11 5q-7 7 -60 135q-57 138 -76 177l-53 -131q-11 -26 -40.5 -99.5t-34.5 -79.5q-4 -7 -11 -7q-10 0 -16 13q-5 14 -96 363q-67 260 -85 328l-1 4q0 6 4 9.5t10 3.5q10 0 13 -10l172 -661l119 294l-126 335q-1 2 -1 5
q0 6 4.5 10.5t9.5 4.5q9 0 12 -10q3 -9 7.5 -19.5t8.5 -23.5q66 -172 105 -285q44 128 120 328q4 11 13 11q7 0 12 -7t2 -14l-45 -119l-82 -220q42 -94 122 -290l170 661q3 12 14 12q7 0 11.5 -5.5t2.5 -13.5q-24 -89 -102 -390z" />
    <glyph glyph-name="x" unicode="x" horiz-adv-x="410" 
d="M398 -4q0 -6 -4.5 -9.5t-10.5 -3.5q-9 0 -12 7l-167 356l-165 -356q-4 -10 -13 -10q-7 0 -11.5 7t-0.5 15l175 376l-145 314q-1 2 -1 5q0 6 5 10.5t10 4.5q8 0 11 -8l135 -292l135 292q4 8 12 8t13 -6t1 -14l-145 -314l176 -376q2 -4 2 -6z" />
    <glyph glyph-name="y" unicode="y" horiz-adv-x="436" 
d="M409 702q7 0 12.5 -6t1.5 -14l-192 -376v-308q0 -8 -4 -12t-10 -4t-10 4t-4 12l1 309l-190 375q-2 4 -2 7q0 5 4.5 9t10.5 4q7 0 11 -7l179 -354l181 354q3 7 11 7z" />
    <glyph glyph-name="z" unicode="z" horiz-adv-x="399" 
d="M20 6q-5 5 -5 12q0 3 2 9l308 639q1 2 0 3.5t-3 1.5h-273q-6 0 -10 4t-4 10t4 10t10 4h295q8 0 13 -5t5 -12q0 -3 -2 -9l-308 -637q-1 -2 0 -3.5t3 -1.5h314q7 0 11 -4.5t4 -10.5t-4 -10.5t-11 -4.5h-336q-8 0 -13 5z" />
    <glyph glyph-name="zero" unicode="0" horiz-adv-x="502" 
d="M138 18q-47 45 -71 125.5t-24 184.5t26 194.5t73.5 145t108.5 54.5t108.5 -54.5t73.5 -145t26 -194.5t-24 -184.5t-71 -125.5t-113 -45t-113 45zM383.5 91.5q46.5 89.5 46.5 236.5q0 95 -22.5 179.5t-63.5 136t-93 51.5t-93 -51.5t-63.5 -136t-22.5 -179.5
q0 -147 46.5 -236.5t132.5 -89.5t132.5 89.5z" />
    <glyph glyph-name="one" unicode="1" horiz-adv-x="323" 
d="M204 677l-142 -24h-4q-7 0 -11 4t-4 10q0 5 3.5 9t9.5 5l155 27h4q8 0 12.5 -4.5t4.5 -11.5v-686q0 -6 -4 -9t-10 -3t-10 3t-4 9v671z" />
    <glyph glyph-name="two" unicode="2" horiz-adv-x="425" 
d="M76 23q0 99 34.5 173t109.5 146q63 61 95.5 118.5t32.5 106.5q0 53 -38 88q-37 35 -81 35q-37 0 -70 -25t-52 -72q-3 -9 -13 -9q-5 0 -8.5 3t-3.5 9q0 2 2 10q21 53 60 83t85 30q56 0 100 -44q46 -46 46 -109q0 -55 -34.5 -118.5t-100.5 -128.5q-52 -51 -80 -90.5
t-40.5 -84t-13.5 -107.5q0 -2 2 -4t4 -2h253q8 0 12.5 -4t4.5 -10t-4.5 -10t-12.5 -4h-270q-19 0 -19 20z" />
    <glyph glyph-name="three" unicode="3" horiz-adv-x="492" 
d="M449 205q0 -68 -27.5 -118t-73.5 -76.5t-102 -26.5q-67 0 -120 42t-75 109q-1 3 -1 7q0 7 4 11.5t9 4.5q10 0 13 -11q19 -61 65 -97t106 -36q48 0 88.5 24t64 67.5t23.5 99.5q0 94 -43.5 141.5t-128.5 47.5q-31 0 -67 -6l-6 -1q-8 0 -13 4t-5 10q0 5 4.5 10t12.5 6
q49 7 82 6q42 9 74 41.5t36 75.5l1 16q0 42 -17.5 74t-45.5 49.5t-59 17.5q-41 0 -72.5 -33.5t-42.5 -85.5q-3 -12 -12 -12q-6 0 -10 5t-3 12q11 62 50 102t90 40q39 0 73 -21.5t55 -60t21 -87.5q0 -45 -20.5 -82.5t-58.5 -57.5q131 -32 131 -211z" />
    <glyph glyph-name="four" unicode="4" horiz-adv-x="527" 
d="M493 173q4 -4 4 -10t-4 -10t-10 -4h-82v-162q0 -7 -3.5 -11t-9.5 -4t-10.5 4.5t-4.5 10.5v162h-307q-6 0 -9.5 3.5t-3.5 8.5t2 8l327 553q3 4 8 4q4 0 7.5 -3t3.5 -7v-539h82q6 0 10 -4zM373 177l1 484l-279 -484h278z" />
    <glyph glyph-name="five" unicode="5" horiz-adv-x="487" 
d="M68 103q0 6 4 10t9 4q7 0 10 -6q22 -44 59 -68t84 -24q72 0 115 51.5t43 134.5q0 95 -33.5 151t-104.5 56q-37 0 -71.5 -18t-60.5 -49q-5 -5 -10 -5q-4 0 -7 3.5t-3 9.5v344q0 8 4.5 13t11.5 5h260q6 0 9.5 -4t3.5 -10t-3.5 -10t-9.5 -4h-243q-2 0 -4 -2t-2 -4l-1 -145
q0 -113 -1 -152q57 60 130 60q80 0 121 -67t41 -172q0 -62 -22.5 -111.5t-64.5 -77.5t-97 -28q-53 0 -97 29t-68 77q-2 3 -2 9z" />
    <glyph glyph-name="six" unicode="6" horiz-adv-x="441" 
d="M56.5 518q13.5 103 52.5 153.5t117 50.5q71 0 109 -46t42 -124v-1q0 -6 -3.5 -9.5t-8.5 -3.5t-9 3.5t-5 9.5q-3 67 -36 107.5t-95 36.5q-51 -3 -82.5 -36.5t-50 -130.5t-20.5 -284q11 73 53.5 112t101.5 39q16 0 32 -3q66 -12 103 -73t37 -145q0 -21 -1 -31
q-7 -78 -48.5 -122.5t-114.5 -44.5q-187 0 -187 253q0 186 13.5 289zM112.5 56.5q35.5 -45.5 92.5 -50.5q7 -1 19 -1q63 0 100.5 38t42.5 100q1 11 1 31q0 75 -30 126t-82 62q-16 3 -32 3q-63 0 -105 -49.5t-42 -146.5q0 -67 35.5 -112.5z" />
    <glyph glyph-name="seven" unicode="7" horiz-adv-x="431" 
d="M194.5 -17.5q-4.5 -4.5 -10.5 -4.5t-10 5t-3 13q7 161 49.5 329t131.5 351h-326q-6 0 -9.5 4t-3.5 10t3.5 10t9.5 4h350q7 0 10.5 -6.5t-0.5 -13.5q-87 -175 -133 -344t-54 -346q0 -7 -4.5 -11.5z" />
    <glyph glyph-name="eight" unicode="8" horiz-adv-x="525" 
d="M427.5 297q42.5 -59 42.5 -129q0 -59 -28 -107t-75.5 -75.5t-103.5 -27.5q-57 0 -104.5 27.5t-75.5 75.5t-28 107q0 70 42.5 129t104.5 82q-41 23 -66 70.5t-25 102.5q0 49 20.5 88.5t55 61.5t76.5 22q41 0 75.5 -22.5t55 -62t20.5 -87.5q0 -55 -25 -102t-66 -70
q62 -24 104.5 -83zM156 473.5q17 -37.5 45.5 -60t61.5 -22.5q34 0 62 22.5t44.5 59.5t16.5 79q0 40 -16.5 72.5t-45 51t-61.5 18.5q-34 0 -62.5 -18.5t-45 -51t-16.5 -72.5q0 -41 17 -78.5zM353.5 12q40.5 23 64.5 63.5t24 91.5q0 50 -26 94.5t-67.5 72t-85.5 27.5
t-86.5 -27t-68.5 -72t-26 -95q0 -51 24 -91.5t65.5 -63.5t91.5 -23t90.5 23z" />
    <glyph glyph-name="nine" unicode="9" horiz-adv-x="469" 
d="M70 614.5q22 53.5 61 85.5t90 32q72 0 115 -58.5t50 -176.5q3 -63 3 -113q0 -76 -8 -177q-7 -87 -40 -146.5t-95 -76.5q-24 -6 -49 -6q-51 0 -92.5 23.5t-56.5 62.5q-1 2 -1 5q0 6 4.5 9.5t10.5 3.5q9 0 12 -8q14 -31 46.5 -50t71.5 -19q24 0 45 7q61 20 94.5 98.5
t33.5 259.5q0 39 -1 60q-15 -71 -56.5 -105t-92.5 -34q-48 0 -86 25.5t-59.5 72.5t-21.5 109q0 63 22 116.5zM113.5 368q38.5 -49 99.5 -49q40 0 72 26t50 70t18 97q0 86 -32 139t-100 53q-38 0 -71.5 -28t-54 -74.5t-20.5 -100.5q0 -84 38.5 -133z" />
    <glyph glyph-name="comma" unicode="," horiz-adv-x="171" 
d="M70 -83q-5 -3 -9 -3q-5 0 -8 3t-3 7q0 6 8 12q13 9 17.5 16.5t5.5 18.5q-10 2 -17 9.5t-7 17.5q0 12 8 19.5t19 7.5q13 0 19.5 -9.5t7.5 -19.5q5 -51 -41 -79z" />
    <glyph glyph-name="exclam" unicode="!" horiz-adv-x="163" 
d="M62 697q0 6 4 10t10 4t10 -4t4 -10v-585q0 -6 -4 -9.5t-10 -3.5t-10 3.5t-4 9.5v585zM58 -21q-8 8 -8 19q0 12 8 19.5t19 7.5t18.5 -7.5t7.5 -19.5q0 -11 -8 -19t-18 -8q-11 0 -19 8z" />
    <glyph glyph-name="period" unicode="." horiz-adv-x="163" 
d="M58 -21q-8 8 -8 19q0 12 7.5 19.5t18.5 7.5t19 -7.5t8 -19.5q0 -11 -8 -19t-19 -8q-10 0 -18 8z" />
    <glyph glyph-name="question" unicode="?" horiz-adv-x="328" 
d="M186.5 423.5q-14.5 -36.5 -14.5 -81.5v-229q0 -6 -4 -9.5t-10 -3.5q-13 0 -13 13v229q0 53 17.5 95t59.5 92q19 23 19 55q0 21 -8.5 40.5t-23.5 31.5q-21 17 -49 17q-26 0 -49 -15.5t-32 -40.5q-5 -12 -14 -12q-7 0 -11.5 6t-2.5 13q12 34 43 55t67 21q35 0 63 -21
q22 -18 33.5 -43.5t11.5 -52.5q0 -40 -24 -70q-44 -53 -58.5 -89.5zM141 -21q-8 8 -8 19q0 12 7.5 19.5t18.5 7.5t19 -7.5t8 -19.5q0 -11 -8 -19t-19 -8q-10 0 -18 8z" />
    <glyph glyph-name="quotesingle" unicode="'" horiz-adv-x="107" 
d="M40.5 683.5q-8.5 -21.5 -34.5 -36.5q-4 -2 -6 -2q-5 0 -8.5 3.5t-3.5 7.5q0 6 6 10q22 20 23 35q-10 2 -17 9.5t-7 17.5q0 12 8 19.5t19 7.5q13 0 19.5 -9.5t7.5 -19.5q2 -21 -6.5 -42.5z" />
  </font>
</defs>
</svg>
